<svg xmlns="http://www.w3.org/2000/svg" xmlns:xlink="http://www.w3.org/1999/xlink" id="Layer_1" x="0px" y="0px" viewBox="0 0 221 49" style="enable-background:new 0 0 221 49;" xml:space="preserve">
<style type="text/css">
	.st0{fill:none;}
	.st1{fill:#273242;}
	.st2{fill:#F6C400;}
</style>
<rect x="11" y="11" class="st0" width="29" height="26.5"></rect>
<g>
	<path class="st1" d="M57.7,31.2v-18l3.6-0.6v6c0.2-0.1,0.5-0.2,0.9-0.2c0.4-0.1,0.8-0.1,1.1-0.1c1,0,1.9,0.1,2.5,0.4   c0.7,0.3,1.2,0.7,1.6,1.2c0.4,0.5,0.7,1.1,0.9,1.8c0.2,0.7,0.3,1.5,0.3,2.4v7.1H65v-6.7c0-1.2-0.2-2-0.5-2.4   c-0.3-0.5-0.8-0.7-1.6-0.7c-0.3,0-0.6,0-0.9,0.1c-0.3,0-0.5,0.1-0.7,0.2v9.6H57.7z M76.6,28.7c0.4,0,0.7,0,1,0c0.3,0,0.6,0,0.8-0.1   v-2.7c-0.1,0-0.4-0.1-0.6-0.1c-0.3,0-0.6,0-0.8,0c-0.3,0-0.7,0-1,0.1c-0.3,0-0.5,0.1-0.8,0.2c-0.2,0.1-0.4,0.3-0.5,0.5   c-0.1,0.2-0.2,0.4-0.2,0.7c0,0.6,0.2,1,0.6,1.2C75.5,28.6,76,28.7,76.6,28.7z M76.3,18.3c1.1,0,1.9,0.1,2.6,0.4s1.3,0.6,1.7,1   c0.4,0.4,0.7,1,0.9,1.6c0.2,0.6,0.3,1.4,0.3,2.1v7.4c-0.5,0.1-1.2,0.2-2.1,0.4c-0.9,0.2-2,0.2-3.3,0.2c-0.8,0-1.6-0.1-2.2-0.2   c-0.7-0.1-1.2-0.4-1.7-0.7c-0.5-0.3-0.8-0.8-1.1-1.3c-0.3-0.5-0.4-1.2-0.4-1.9c0-0.7,0.1-1.4,0.4-1.9c0.3-0.5,0.7-0.9,1.2-1.2   c0.5-0.3,1.1-0.5,1.7-0.6c0.6-0.1,1.3-0.2,2-0.2c0.5,0,0.9,0,1.2,0.1c0.4,0,0.7,0.1,0.9,0.1v-0.3c0-0.6-0.2-1.1-0.6-1.5   c-0.4-0.4-1-0.6-1.9-0.6c-0.6,0-1.2,0-1.8,0.1c-0.6,0.1-1.1,0.2-1.5,0.4l-0.5-2.9c0.2-0.1,0.5-0.1,0.8-0.2c0.3-0.1,0.7-0.1,1-0.2   c0.4-0.1,0.8-0.1,1.2-0.1C75.5,18.3,75.9,18.3,76.3,18.3z M92.7,21.8c-0.3-0.1-0.7-0.2-1.1-0.2c-0.4-0.1-0.9-0.1-1.4-0.1   c-0.2,0-0.5,0-0.8,0.1c-0.3,0-0.5,0.1-0.7,0.1v9.6h-3.6v-12c0.6-0.2,1.4-0.4,2.3-0.6c0.9-0.2,1.9-0.3,2.9-0.3c0.2,0,0.4,0,0.7,0   c0.3,0,0.5,0,0.8,0.1c0.3,0,0.5,0.1,0.8,0.1c0.3,0,0.5,0.1,0.7,0.2L92.7,21.8z M98.8,31.2h-3.6V18.6h3.6V31.2z M99.1,14.9   c0,0.7-0.2,1.2-0.6,1.6c-0.4,0.4-0.9,0.6-1.5,0.6c-0.6,0-1.1-0.2-1.5-0.6c-0.4-0.4-0.6-0.9-0.6-1.6c0-0.7,0.2-1.2,0.6-1.5   c0.4-0.4,0.9-0.6,1.5-0.6c0.6,0,1.1,0.2,1.5,0.6C98.9,13.8,99.1,14.3,99.1,14.9z M111.5,31.2h-3.6V18.6h3.6V31.2z M111.8,14.9   c0,0.7-0.2,1.2-0.6,1.6c-0.4,0.4-0.9,0.6-1.5,0.6c-0.6,0-1.1-0.2-1.5-0.6c-0.4-0.4-0.6-0.9-0.6-1.6c0-0.7,0.2-1.2,0.6-1.5   c0.4-0.4,0.9-0.6,1.5-0.6c0.6,0,1.1,0.2,1.5,0.6C111.6,13.8,111.8,14.3,111.8,14.9z M114.8,19c0.6-0.2,1.4-0.3,2.4-0.5   c1-0.2,2-0.2,3-0.2c1.1,0,2,0.1,2.7,0.4c0.7,0.3,1.3,0.7,1.7,1.2c0.4,0.5,0.7,1.1,0.9,1.8c0.2,0.7,0.3,1.5,0.3,2.4v7.1h-3.6v-6.7   c0-1.2-0.2-2-0.5-2.4c-0.3-0.5-0.9-0.7-1.7-0.7c-0.3,0-0.5,0-0.8,0c-0.3,0-0.5,0-0.8,0.1v9.7h-3.6V19z M132.6,31.2H129V18.6h3.6   V31.2z M132.9,14.9c0,0.7-0.2,1.2-0.6,1.6c-0.4,0.4-0.9,0.6-1.5,0.6c-0.6,0-1.1-0.2-1.5-0.6c-0.4-0.4-0.6-0.9-0.6-1.6   c0-0.7,0.2-1.2,0.6-1.5c0.4-0.4,0.9-0.6,1.5-0.6c0.6,0,1.1,0.2,1.5,0.6C132.7,13.8,132.9,14.3,132.9,14.9z"></path>
	<path class="st2" d="M144.7,24.8c0,1.1,0.2,2,0.7,2.7c0.5,0.7,1.2,1,2.2,1c0.3,0,0.6,0,0.9,0c0.3,0,0.5-0.1,0.7-0.1v-6.5   c-0.2-0.1-0.5-0.3-0.9-0.4c-0.4-0.1-0.7-0.1-1.1-0.1C145.6,21.4,144.7,22.5,144.7,24.8z M152.8,30.8c-0.3,0.1-0.7,0.2-1.1,0.3   c-0.4,0.1-0.9,0.2-1.3,0.2c-0.4,0.1-0.9,0.1-1.4,0.1c-0.5,0-0.9,0.1-1.3,0.1c-1,0-2-0.2-2.8-0.5c-0.8-0.3-1.5-0.7-2.1-1.3   c-0.6-0.6-1-1.3-1.3-2.1c-0.3-0.8-0.4-1.7-0.4-2.7c0-1,0.1-1.9,0.4-2.8c0.3-0.8,0.6-1.5,1.1-2.1c0.5-0.6,1.1-1,1.8-1.3   c0.7-0.3,1.5-0.5,2.4-0.5c0.5,0,0.9,0,1.3,0.1c0.4,0.1,0.8,0.2,1.2,0.4v-5.7l3.6-0.6V30.8z M155.6,25c0-1.1,0.2-2.1,0.5-2.9   c0.4-0.8,0.8-1.6,1.4-2.1s1.2-1,1.9-1.3c0.7-0.3,1.5-0.4,2.3-0.4c1.8,0,3.2,0.6,4.2,1.7c1,1.1,1.6,2.7,1.6,4.8c0,0.2,0,0.4,0,0.7   c0,0.2,0,0.5,0,0.6h-8.1c0.1,0.7,0.4,1.3,1,1.8s1.4,0.6,2.4,0.6c0.7,0,1.3-0.1,1.9-0.2c0.6-0.1,1.2-0.3,1.6-0.5l0.5,2.9   c-0.2,0.1-0.4,0.2-0.8,0.3c-0.3,0.1-0.7,0.2-1.1,0.2c-0.4,0.1-0.8,0.1-1.2,0.2s-0.9,0.1-1.3,0.1c-1.1,0-2.1-0.2-3-0.5   c-0.8-0.3-1.5-0.8-2.1-1.4c-0.5-0.6-1-1.3-1.2-2.1C155.7,26.8,155.6,25.9,155.6,25z M164,23.6c0-0.3-0.1-0.6-0.2-0.9   c-0.1-0.3-0.2-0.5-0.4-0.8c-0.2-0.2-0.4-0.4-0.7-0.6c-0.3-0.1-0.6-0.2-1-0.2c-0.4,0-0.7,0.1-1,0.2c-0.3,0.1-0.5,0.3-0.7,0.5   c-0.2,0.2-0.3,0.5-0.5,0.8c-0.1,0.3-0.2,0.6-0.2,0.9H164z M173.8,28.7c0.7,0,1.1-0.1,1.4-0.2s0.4-0.4,0.4-0.7   c0-0.3-0.2-0.5-0.5-0.7c-0.4-0.2-0.9-0.5-1.6-0.7c-0.6-0.2-1.1-0.4-1.5-0.6c-0.4-0.2-0.8-0.5-1.2-0.8c-0.3-0.3-0.6-0.7-0.7-1.1   c-0.2-0.4-0.3-1-0.3-1.6c0-1.2,0.4-2.1,1.3-2.8c0.9-0.7,2.1-1,3.6-1c0.8,0,1.5,0.1,2.2,0.2c0.7,0.1,1.3,0.3,1.7,0.4l-0.6,2.8   c-0.4-0.1-0.9-0.3-1.4-0.4c-0.5-0.1-1-0.2-1.6-0.2c-1.1,0-1.7,0.3-1.7,0.9c0,0.1,0,0.3,0.1,0.4c0,0.1,0.1,0.2,0.3,0.3   c0.1,0.1,0.3,0.2,0.6,0.3c0.3,0.1,0.6,0.2,1,0.4c0.8,0.3,1.4,0.6,1.9,0.9c0.5,0.3,0.9,0.6,1.2,0.9c0.3,0.3,0.5,0.7,0.6,1.1   c0.1,0.4,0.2,0.9,0.2,1.4c0,1.2-0.5,2.2-1.4,2.8c-0.9,0.6-2.2,1-4,1c-1.1,0-2.1-0.1-2.8-0.3c-0.7-0.2-1.2-0.4-1.5-0.5l0.6-2.9   c0.6,0.2,1.2,0.4,1.9,0.6C172.5,28.6,173.2,28.7,173.8,28.7z M186.7,28.7c0.4,0,0.7,0,1,0c0.3,0,0.6,0,0.8-0.1v-2.7   c-0.1,0-0.4-0.1-0.6-0.1c-0.3,0-0.6,0-0.8,0c-0.3,0-0.7,0-1,0.1c-0.3,0-0.5,0.1-0.8,0.2c-0.2,0.1-0.4,0.3-0.5,0.5   c-0.1,0.2-0.2,0.4-0.2,0.7c0,0.6,0.2,1,0.6,1.2C185.5,28.6,186,28.7,186.7,28.7z M186.4,18.3c1.1,0,1.9,0.1,2.6,0.4s1.3,0.6,1.7,1   c0.4,0.4,0.7,1,0.9,1.6c0.2,0.6,0.3,1.4,0.3,2.1v7.4c-0.5,0.1-1.2,0.2-2.1,0.4c-0.9,0.2-2,0.2-3.3,0.2c-0.8,0-1.6-0.1-2.2-0.2   c-0.7-0.1-1.2-0.4-1.7-0.7c-0.5-0.3-0.8-0.8-1.1-1.3c-0.3-0.5-0.4-1.2-0.4-1.9c0-0.7,0.1-1.4,0.4-1.9c0.3-0.5,0.7-0.9,1.2-1.2   c0.5-0.3,1.1-0.5,1.7-0.6c0.6-0.1,1.3-0.2,2-0.2c0.5,0,0.9,0,1.2,0.1c0.4,0,0.7,0.1,0.9,0.1v-0.3c0-0.6-0.2-1.1-0.6-1.5   c-0.4-0.4-1-0.6-1.9-0.6c-0.6,0-1.2,0-1.8,0.1c-0.6,0.1-1.1,0.2-1.5,0.4l-0.5-2.9c0.2-0.1,0.5-0.1,0.8-0.2c0.3-0.1,0.7-0.1,1-0.2   c0.4-0.1,0.8-0.1,1.2-0.1C185.5,18.3,185.9,18.3,186.4,18.3z M198.7,31.2h-3.6V18.6h3.6V31.2z M199,14.9c0,0.7-0.2,1.2-0.6,1.6   c-0.4,0.4-0.9,0.6-1.5,0.6c-0.6,0-1.1-0.2-1.5-0.6c-0.4-0.4-0.6-0.9-0.6-1.6c0-0.7,0.2-1.2,0.6-1.5c0.4-0.4,0.9-0.6,1.5-0.6   c0.6,0,1.1,0.2,1.5,0.6C198.8,13.8,199,14.3,199,14.9z M202,19c0.6-0.2,1.4-0.3,2.4-0.5c1-0.2,2-0.2,3-0.2c1.1,0,2,0.1,2.7,0.4   c0.7,0.3,1.3,0.7,1.7,1.2c0.4,0.5,0.7,1.1,0.9,1.8c0.2,0.7,0.3,1.5,0.3,2.4v7.1h-3.6v-6.7c0-1.2-0.2-2-0.5-2.4s-0.9-0.7-1.7-0.7   c-0.3,0-0.5,0-0.8,0c-0.3,0-0.5,0-0.8,0.1v9.7H202V19z"></path>
	<circle class="st1" cx="24" cy="24" r="24"></circle>
	
		<image style="overflow:visible;" width="1209" height="1104" xlink:href="Asset 2@4x 1.png" transform="matrix(2.729207e-02 0 0 2.729207e-02 9.5437 8.9766)">
	</image>
</g>
</svg>