<svg xmlns="http://www.w3.org/2000/svg" xmlns:xlink="http://www.w3.org/1999/xlink" id="Layer_1" x="0px" y="0px" viewBox="0 0 232.1 48.1" style="enable-background:new 0 0 232.1 48.1;" xml:space="preserve">
<style type="text/css">
	.st0{fill:none;}
	.st1{fill:#273242;}
	.st2{fill:#F6C400;}
	.st3{fill:#FFFFFF;}
</style>
<title>HID Logo</title>
<g>
	<rect x="11" y="11" class="st0" width="29" height="26.5"></rect>
	<g>
		<path class="st1" d="M57.7,33.5V13.3l4-0.7v6.7c0.3-0.1,0.7-0.2,1-0.2C63.2,19,63.5,19,64,19c1,0,1.9,0.1,2.8,0.4    c0.7,0.2,1.3,0.7,1.8,1.3c0.4,0.6,0.8,1.3,1,2c0.2,0.9,0.3,1.8,0.3,2.7v8h-4V26c0.1-0.9-0.1-1.9-0.6-2.8c-0.4-0.6-1.1-0.9-1.8-0.8    c-0.3,0-0.7,0-1,0.1c-0.3,0-0.6,0.1-0.8,0.2v10.8H57.7z M79,30.7c0.3,0,0.8,0,1.1,0s0.6,0,0.9-0.1v-3c-0.2,0-0.4-0.1-0.8-0.1    c-0.3,0-0.6,0-0.9,0c-0.3,0-0.8,0-1.1,0.1c-0.3,0-0.6,0.1-0.9,0.2c-0.2,0.1-0.4,0.3-0.6,0.6c-0.4,0.7-0.2,1.6,0.4,2.1    C77.8,30.6,78.4,30.8,79,30.7L79,30.7z M78.7,19c1,0,2,0.1,2.9,0.4c0.7,0.2,1.3,0.6,1.9,1.1c0.4,0.6,0.8,1.1,1,1.8    c0.2,0.8,0.3,1.6,0.3,2.4v8.3c-0.6,0.1-1.3,0.2-2.4,0.4c-1.2,0.2-2.5,0.3-3.7,0.2c-0.9,0-1.7-0.1-2.5-0.2    c-0.7-0.1-1.3-0.4-1.9-0.8s-1-0.9-1.2-1.5c-0.3-0.7-0.4-1.5-0.4-2.2c0-0.7,0.1-1.5,0.4-2.1c0.3-0.6,0.8-1,1.3-1.3    c0.6-0.3,1.2-0.6,1.9-0.7c0.8-0.1,1.5-0.2,2.2-0.2c0.4,0,0.9,0,1.3,0.1c0.3,0,0.7,0.1,1,0.1v-0.3c0-0.6-0.2-1.2-0.7-1.7    c-0.6-0.4-1.3-0.7-2.1-0.6c-0.7,0-1.3,0-2,0.1c-0.6,0.1-1.1,0.2-1.7,0.4l-0.4-3.3c0.2-0.1,0.6-0.1,0.9-0.2    c0.3-0.1,0.8-0.1,1.1-0.2C76.6,19,77,19,77.5,19C77.9,19,78.1,19,78.7,19L78.7,19z M97,23c-0.3-0.1-0.8-0.2-1.2-0.2    c-0.6-0.1-1-0.2-1.6-0.1c-0.6,0-1.1,0.1-1.7,0.2v10.8h-4V20.2c0.8-0.2,1.7-0.6,2.6-0.7c1.1-0.2,2.1-0.3,3.3-0.3c0.2,0,0.6,0,0.8,0    c0.3,0,0.6,0.1,0.9,0.1s0.6,0.1,0.9,0.1c0.2,0,0.6,0.1,0.8,0.2L97,23z M103.9,33.5h-4V19.4h4V33.5z M104.2,15.3    c0,0.7-0.2,1.3-0.7,1.8s-1,0.7-1.7,0.6c-0.7,0-1.2-0.2-1.7-0.6c-0.4-0.4-0.8-1.1-0.7-1.8c0-0.7,0.2-1.2,0.7-1.7    c0.4-0.4,1.1-0.7,1.7-0.7c0.7,0,1.2,0.2,1.7,0.7C104,14,104.3,14.6,104.2,15.3z M118.1,33.6h-4V19.4h4V33.6z M118.5,15.3    c0,0.7-0.2,1.3-0.8,1.8c-0.4,0.4-1,0.7-1.7,0.6c-0.7,0-1.2-0.2-1.7-0.6c-0.4-0.4-0.8-1.1-0.7-1.8c0-0.7,0.2-1.2,0.7-1.7    c0.4-0.4,1.1-0.7,1.7-0.7c0.7,0,1.2,0.2,1.7,0.7C118.2,14,118.5,14.6,118.5,15.3z M121.8,19.9c0.9-0.2,1.8-0.4,2.7-0.6    c1.1-0.2,2.2-0.2,3.4-0.2c1,0,2,0.1,3,0.4c0.8,0.2,1.5,0.7,1.9,1.3c0.4,0.6,0.8,1.3,1,2c0.2,0.9,0.3,1.8,0.3,2.7v8h-4v-7.5    c0.1-0.9-0.1-1.9-0.4-2.8c-0.4-0.6-1.2-0.9-1.9-0.8c-0.3,0-0.6,0-0.9,0s-0.6,0-0.9,0.1v10.9h-4L121.8,19.9z M141.7,33.6h-3.9V19.4    h4L141.7,33.6z M142.2,15.3c0,0.7-0.2,1.3-0.7,1.8c-0.4,0.4-1,0.7-1.7,0.6c-0.7,0-1.2-0.2-1.7-0.6c-0.4-0.4-0.8-1.1-0.7-1.8    c0-0.7,0.2-1.2,0.7-1.7c0.4-0.4,1.1-0.7,1.7-0.7c0.7,0,1.2,0.2,1.7,0.7C141.9,14,142.2,14.6,142.2,15.3z"></path>
		<path class="st2" d="M155.4,26.3c0,1,0.2,2.1,0.8,3c0.6,0.8,1.6,1.2,2.5,1.1c0.3,0,0.7,0,1,0l0.8-0.1v-7.3c-0.3-0.2-0.7-0.3-1-0.4    c-0.4-0.1-0.8-0.1-1.2-0.1C156.4,22.5,155.4,23.7,155.4,26.3z M164.5,33.1c-0.3,0.1-0.8,0.2-1.2,0.3s-1,0.1-1.5,0.2    c-0.4,0.1-1,0.1-1.6,0.1c-0.4,0-1,0.1-1.5,0.1c-1,0-2.1-0.1-3.1-0.6c-0.9-0.3-1.7-0.8-2.4-1.5c-0.7-0.7-1.1-1.5-1.5-2.4    c-0.3-1-0.4-2-0.4-3c0-1,0.1-2.1,0.4-3.1c0.2-0.9,0.7-1.7,1.2-2.4c0.6-0.7,1.2-1.1,2-1.5c0.9-0.3,1.8-0.6,2.7-0.6    c0.4,0,1,0,1.5,0.1c0.4,0.1,0.9,0.2,1.3,0.4v-6.4l4-0.7L164.5,33.1z M167.7,26.6c0-1.1,0.2-2.2,0.6-3.3c0.3-0.9,0.9-1.7,1.6-2.4    c0.6-0.7,1.3-1.1,2.1-1.5s1.7-0.4,2.6-0.4c1.8-0.1,3.5,0.6,4.8,1.9c1.2,1.5,1.9,3.5,1.8,5.4c0,0.2,0,0.4,0,0.8    c0,0.3,0,0.6-0.1,0.7h-9.1c0.1,0.8,0.4,1.5,1.1,2c0.8,0.6,1.8,0.8,2.7,0.7c0.7,0,1.5-0.1,2.1-0.2c0.6-0.1,1.2-0.3,1.8-0.6l0.6,3.3    c-0.2,0.1-0.6,0.2-0.9,0.3c-0.4,0.1-0.8,0.2-1.2,0.2c-0.4,0.1-0.9,0.1-1.5,0.2c-0.6,0.1-1,0.1-1.5,0.1c-1.1,0-2.2-0.1-3.4-0.6    c-0.9-0.3-1.7-0.9-2.4-1.6c-0.6-0.7-1-1.5-1.2-2.4C167.8,28.6,167.7,27.6,167.7,26.6L167.7,26.6z M177.1,25c0-0.3-0.1-0.7-0.2-1    c-0.2-0.7-0.7-1.2-1.2-1.5c-0.3-0.2-0.8-0.2-1.1-0.2c-0.3,0-0.8,0.1-1.1,0.2s-0.6,0.3-0.8,0.6c-0.2,0.2-0.4,0.6-0.6,0.9    c-0.1,0.3-0.2,0.7-0.2,1H177.1z M188.1,30.6c0.6,0,1.1,0,1.6-0.2c0.3-0.1,0.4-0.4,0.4-0.8c0-0.3-0.2-0.7-0.6-0.9    c-0.6-0.3-1.2-0.6-1.8-0.8c-0.7-0.2-1.2-0.4-1.7-0.7c-0.4-0.2-0.9-0.6-1.2-0.9s-0.7-0.8-0.8-1.2c-0.2-0.6-0.3-1.1-0.3-1.8    c0-1.2,0.6-2.4,1.5-3.1c1.2-0.8,2.6-1.2,4-1.1c0.8,0,1.7,0.1,2.5,0.2c0.7,0.1,1.2,0.2,1.9,0.4l-0.7,3.1c-0.4-0.2-1-0.3-1.6-0.4    s-1.2-0.2-1.8-0.2c-1.2,0-1.9,0.3-1.9,1c0,0.1,0,0.3,0.1,0.4c0.1,0.1,0.2,0.2,0.3,0.3c0.2,0.1,0.4,0.2,0.7,0.3    c0.3,0.1,0.7,0.2,1.1,0.4c0.8,0.2,1.5,0.6,2.1,1c0.6,0.2,1,0.6,1.3,1c0.3,0.3,0.6,0.8,0.7,1.2c0.1,0.6,0.2,1,0.2,1.6    c0.1,1.2-0.6,2.5-1.6,3.1c-1.3,0.8-2.9,1.2-4.5,1.1c-1,0-2.1-0.1-3.1-0.3c-0.6-0.1-1.1-0.3-1.7-0.6l0.7-3.3    c0.7,0.2,1.3,0.4,2.1,0.7C186.7,30.6,187.4,30.7,188.1,30.6L188.1,30.6z M202.5,30.7c0.4,0,0.8,0,1.1,0s0.6,0,0.9-0.1v-3    c-0.1,0-0.4-0.1-0.7-0.1c-0.3,0-0.6,0-0.9,0s-0.8,0-1.1,0.1c-0.3,0-0.6,0.1-0.9,0.2c-0.2,0.1-0.4,0.3-0.6,0.6    c-0.4,0.7-0.2,1.6,0.4,2.1C201.3,30.7,201.9,30.8,202.5,30.7L202.5,30.7z M202.3,18.9c1,0,2,0.1,2.9,0.4c0.7,0.2,1.3,0.6,1.9,1.1    c0.4,0.6,0.9,1.1,1,1.8c0.2,0.8,0.3,1.6,0.3,2.4V33c-0.6,0.1-1.3,0.2-2.4,0.4c-1.2,0.2-2.5,0.3-3.7,0.2c-0.8,0-1.7-0.1-2.5-0.2    c-0.7-0.1-1.3-0.4-1.9-0.8s-1-0.9-1.2-1.5c-0.3-0.7-0.4-1.5-0.4-2.2c0-0.8,0.1-1.5,0.4-2.1c0.3-0.6,0.8-1,1.3-1.3s1.2-0.6,1.9-0.7    c0.8-0.1,1.5-0.2,2.2-0.2c0.4,0,0.9,0,1.3,0.1c0.3,0,0.7,0.1,1,0.1v-0.3c0-0.6-0.2-1.2-0.7-1.7c-0.6-0.4-1.3-0.7-2.1-0.6    c-0.7,0-1.3,0-2,0.1c-0.6,0.1-1.1,0.2-1.7,0.4l-0.6-3.3c0.2-0.1,0.6-0.1,0.9-0.2s0.8-0.1,1.1-0.2c0.4-0.1,0.9-0.1,1.3-0.1    C201.4,18.9,201.8,19,202.3,18.9L202.3,18.9z M216.1,33.5h-4V19.4h4V33.5z M216.4,15.3c0,0.7-0.2,1.3-0.7,1.8    c-0.4,0.4-1,0.7-1.7,0.6c-0.7,0-1.2-0.2-1.7-0.6c-0.4-0.4-0.8-1.1-0.7-1.8c0-0.7,0.2-1.2,0.7-1.7c0.4-0.4,1.1-0.7,1.7-0.7    c0.7,0,1.2,0.2,1.7,0.7C216.2,14,216.4,14.6,216.4,15.3z M219.8,19.8c0.9-0.2,1.8-0.4,2.7-0.6c1.1-0.2,2.2-0.2,3.4-0.2    c1,0,2,0.1,3,0.4c0.8,0.2,1.5,0.7,1.9,1.3c0.4,0.6,0.8,1.3,1,2c0.2,0.9,0.3,1.8,0.3,2.7v8h-4V26c0.1-0.9-0.1-1.9-0.4-2.8    c-0.4-0.6-1.2-0.9-1.9-0.8c-0.3,0-0.6,0-0.9,0s-0.6,0-0.9,0.1v10.9h-4.2V19.8z"></path>
	</g>
	<circle class="st1" cx="24" cy="24" r="24"></circle>
	<g>
		<path class="st3" d="M38.6,15.6c-2.7-3.6-6.9-5.7-11.3-5.7H27c1.2,1.7,1.2,3.9,0.1,5.7h0.1c4.9,0,8.8,4.1,8.6,9    c-0.2,4.5-3.9,8-8.5,8c-0.4,0-0.7-0.3-0.7-0.7v-7.1c0-1.9-1.6-3.5-3.5-3.5l0,0h-7c-0.4,0-0.8-0.3-0.8-0.8v-9.8    c0-0.4-0.3-0.7-0.7-0.7h-1.5c-1.9,0-3.5,1.6-3.5,3.5l0,0v21.3c0,1.9,1.6,3.5,3.5,3.5l0,0h1.5c0.4,0,0.7-0.3,0.7-0.7l0,0v-9.8    c0-0.4,0.3-0.8,0.8-0.8h4c0.5,0,0.8,0.4,0.8,0.8l0,0v7c0,1.9,1.6,3.5,3.5,3.5l0,0h2.2l0,0c0.2,0,0.5,0,0.7,0    c7.8,0,14.1-6.3,14.1-14.1C41.4,21,40.4,18,38.6,15.6z"></path>
		<path class="st2" d="M23.8,15.6h1.5c0.8-0.7,1.3-1.7,1.3-2.8c0-1.2-0.5-2.2-1.4-2.9h-3.6c-0.4,0-0.7,0.3-0.7,0.7v2.1l0,0    C20.9,14.3,22.2,15.6,23.8,15.6z"></path>
	</g>
</g>
</svg>