<svg xmlns="http://www.w3.org/2000/svg" xmlns:xlink="http://www.w3.org/1999/xlink" id="Layer_1" x="0px" y="0px" viewBox="0 0 1080 1080" style="enable-background:new 0 0 1080 1080;" xml:space="preserve">
<style type="text/css">
	.st0{fill:#273242;}
	.st1{fill:#FFFFFF;}
	.st2{fill:#F6C400;}
</style>
<rect x="0.3" y="2.1" class="st0" width="1080.5" height="1080.5"></rect>
<g>
	<path class="st1" d="M895.5,325.6c-66.4-88.7-170.8-140.9-281.7-140.8h-6.7c29.7,42,30.4,98.1,1.7,140.8h2.9   c121.7,0,219.7,101.7,213,223.2c-6.2,111.2-98.2,199.3-211,199.3c-9.7,0-17.6-7.9-17.6-17.6V553.1c0-47.9-38.8-86.7-86.7-86.7l0,0   H333.9c-10.6,0-19.3-8.6-19.3-19.3V202.4c0-9.7-7.9-17.6-17.6-17.6h-36.6c-47.9,0-86.7,38.8-86.7,86.7l0,0v530.7   c0,47.9,38.8,86.7,86.7,86.7l0,0H297c9.7,0,17.6-7.8,17.7-17.6c0,0,0,0,0-0.1V626.5c0-10.6,8.6-19.3,19.3-19.3h100.8   c11.4,0,20.7,9.3,20.7,20.7c0,0,0,0,0,0v174.3c0,47.9,38.8,86.7,86.7,86.7l0,0h54.1v-0.4c5.8,0.3,11.7,0.4,17.6,0.4   c194.4,0,352.1-157.7,352.1-352.1C966.1,460.6,941.4,386.5,895.5,325.6z"></path>
	<path class="st2" d="M525.8,325.6h38.4c20-16.6,32.7-41.7,32.7-69.7c0-28.9-13.5-54.6-34.5-71.2H473c-9.7,0-17.6,7.9-17.6,17.6   v52.8c0,0,0,0,0,0C455.4,294.1,487,325.6,525.8,325.6z"></path>
</g>
</svg>