<svg xmlns="http://www.w3.org/2000/svg" xmlns:xlink="http://www.w3.org/1999/xlink" id="Layer_1" data-name="Layer 1" viewBox="0 0 212.93 48.08"><defs><style>.cls-1{fill:none;}.cls-2{fill:#273242;}.cls-3{fill:#f6c400;}</style></defs><title>HID Logo</title><rect class="cls-1" x="11" y="11" width="29.05" height="26.53"></rect><path class="cls-2" d="M57.68,31.22v-18l3.58-.57v6a5.8,5.8,0,0,1,.91-.22,5.36,5.36,0,0,1,1.1-.12,6.49,6.49,0,0,1,2.55.43,3.83,3.83,0,0,1,1.63,1.18,4.45,4.45,0,0,1,.86,1.82,9.54,9.54,0,0,1,.27,2.35v7.13H65V24.53a4.74,4.74,0,0,0-.46-2.45,1.73,1.73,0,0,0-1.63-.72,4.46,4.46,0,0,0-.91.09c-.27.05-.52.11-.74.17v9.6Zm19-2.49c.35,0,.68,0,1,0a6.2,6.2,0,0,0,.77-.07V25.92a6.14,6.14,0,0,0-.65-.1,7.61,7.61,0,0,0-.79-.05,6,6,0,0,0-1,.08,2.3,2.3,0,0,0-.77.21,1.3,1.3,0,0,0-.52.46,1.46,1.46,0,0,0,.36,1.89A3.24,3.24,0,0,0,76.64,28.73Zm-.29-10.47a8.33,8.33,0,0,1,2.64.36,4.13,4.13,0,0,1,1.68,1,3.83,3.83,0,0,1,.91,1.64,7.87,7.87,0,0,1,.26,2.13v7.44q-.77.16-2.13.39a19.53,19.53,0,0,1-3.31.24,11,11,0,0,1-2.24-.22,4.91,4.91,0,0,1-1.7-.7,3.2,3.2,0,0,1-1.1-1.29,4.4,4.4,0,0,1-.39-2,3.86,3.86,0,0,1,.43-1.87,3.59,3.59,0,0,1,1.2-1.22,5.15,5.15,0,0,1,1.71-.65,9.26,9.26,0,0,1,2-.22,8.7,8.7,0,0,1,1.22.08,5,5,0,0,1,.89.14v-.34a2,2,0,0,0-.55-1.46,2.67,2.67,0,0,0-1.92-.55,11.92,11.92,0,0,0-1.8.14,7.43,7.43,0,0,0-1.54.36l-.45-2.88c.21-.06.46-.13.77-.19a9.48,9.48,0,0,1,1-.19c.37-.07.75-.11,1.15-.15S75.93,18.26,76.35,18.26Zm16.34,3.51c-.32-.08-.7-.16-1.13-.24a6.17,6.17,0,0,0-1.39-.15,9.06,9.06,0,0,0-1.52.19v9.65H85.08V19.27a20.71,20.71,0,0,1,2.25-.62,12.64,12.64,0,0,1,2.93-.32,6.73,6.73,0,0,1,.7.05,7.46,7.46,0,0,1,.81.1,7.39,7.39,0,0,1,.82.14,3.7,3.7,0,0,1,.7.19Zm6.09,9.45H95.2V18.6h3.58ZM99.11,15a2,2,0,0,1-.64,1.56,2.16,2.16,0,0,1-1.49.55,2.23,2.23,0,0,1-1.51-.55A2,2,0,0,1,94.84,15a1.94,1.94,0,0,1,.63-1.54A2.2,2.2,0,0,1,97,12.84a2.14,2.14,0,0,1,1.49.57A1.92,1.92,0,0,1,99.11,15Zm12.37,16.27h-3.57V18.6h3.57ZM111.82,15a2,2,0,0,1-.65,1.56,2.16,2.16,0,0,1-1.49.55,2.25,2.25,0,0,1-1.51-.55,2,2,0,0,1-.62-1.56,1.93,1.93,0,0,1,.62-1.54,2.22,2.22,0,0,1,1.51-.57,2.14,2.14,0,0,1,1.49.57A1.92,1.92,0,0,1,111.82,15Zm3,4.08a17.57,17.57,0,0,1,2.36-.48,18.3,18.3,0,0,1,3-.24,7,7,0,0,1,2.66.43,4,4,0,0,1,1.71,1.18,4.77,4.77,0,0,1,.89,1.82,10.06,10.06,0,0,1,.26,2.35v7.13h-3.58V24.53a4.86,4.86,0,0,0-.45-2.45,1.87,1.87,0,0,0-1.71-.72,5.86,5.86,0,0,0-.81.05,7.56,7.56,0,0,0-.77.07v9.74h-3.58Zm17.71,12.19H129V18.6h3.57ZM132.89,15a2,2,0,0,1-.65,1.56,2.16,2.16,0,0,1-1.49.55,2.25,2.25,0,0,1-1.51-.55,2,2,0,0,1-.62-1.56,1.93,1.93,0,0,1,.62-1.54,2.22,2.22,0,0,1,1.51-.57,2.14,2.14,0,0,1,1.49.57A1.92,1.92,0,0,1,132.89,15Z" transform="translate(0 0)"></path><path class="cls-3" d="M144.73,24.81a4.42,4.42,0,0,0,.74,2.67,2.58,2.58,0,0,0,2.21,1c.32,0,.62,0,.89,0l.67-.09V21.86a3.28,3.28,0,0,0-.89-.36,4.32,4.32,0,0,0-1.08-.14C145.58,21.36,144.73,22.51,144.73,24.81Zm8.09,6c-.32.1-.69.2-1.11.29s-.85.15-1.32.22-.91.11-1.39.14a12.41,12.41,0,0,1-1.34.07,8.08,8.08,0,0,1-2.79-.45,5.8,5.8,0,0,1-2.06-1.3,6,6,0,0,1-1.3-2.06,8.16,8.16,0,0,1-.43-2.74,9.44,9.44,0,0,1,.38-2.76,6.14,6.14,0,0,1,1.11-2.11,4.64,4.64,0,0,1,1.75-1.32,6,6,0,0,1,2.4-.46,5.21,5.21,0,0,1,1.32.15,6.31,6.31,0,0,1,1.2.41V13.17l3.58-.57Zm2.74-5.8a7.71,7.71,0,0,1,.51-2.93A6.37,6.37,0,0,1,157.44,20a5.72,5.72,0,0,1,1.92-1.28,6.24,6.24,0,0,1,2.25-.43,5.54,5.54,0,0,1,4.25,1.66,6.72,6.72,0,0,1,1.56,4.82c0,.21,0,.44,0,.7s0,.45-.05.65h-8.11a2.37,2.37,0,0,0,1,1.75,4.16,4.16,0,0,0,2.45.65,11.14,11.14,0,0,0,1.92-.17,7.56,7.56,0,0,0,1.56-.46l.48,2.91a5.41,5.41,0,0,1-.77.28,7.23,7.23,0,0,1-1.08.24c-.39.08-.8.15-1.25.2s-.9.07-1.34.07a8,8,0,0,1-3-.51,6,6,0,0,1-2.09-1.36A5.91,5.91,0,0,1,156,27.6,8.36,8.36,0,0,1,155.56,25Zm8.4-1.37a3.33,3.33,0,0,0-.16-.89,2.14,2.14,0,0,0-1.11-1.32,2.21,2.21,0,0,0-1-.22,2.34,2.34,0,0,0-1,.22,1.93,1.93,0,0,0-.72.53,2.57,2.57,0,0,0-.46.79,5.24,5.24,0,0,0-.21.89Zm9.84,5a3.6,3.6,0,0,0,1.4-.19.73.73,0,0,0,.4-.74.89.89,0,0,0-.52-.75,9.78,9.78,0,0,0-1.61-.74c-.56-.21-1.07-.42-1.54-.65a4.67,4.67,0,0,1-1.15-.79,3.31,3.31,0,0,1-.74-1.13,4,4,0,0,1-.27-1.56,3.38,3.38,0,0,1,1.32-2.81,5.8,5.8,0,0,1,3.63-1,10.52,10.52,0,0,1,2.2.22,9.56,9.56,0,0,1,1.68.43L178,21.69a13.39,13.39,0,0,0-1.37-.38,7.29,7.29,0,0,0-1.63-.17c-1.12,0-1.68.31-1.68.94a.92.92,0,0,0,.07.38,1,1,0,0,0,.29.34,6.27,6.27,0,0,0,.58.33c.25.12.57.24,1,.39a13.63,13.63,0,0,1,1.94.86,4.2,4.2,0,0,1,1.2.91,2.56,2.56,0,0,1,.62,1.08,4.54,4.54,0,0,1,.2,1.4,3.22,3.22,0,0,1-1.42,2.83,6.94,6.94,0,0,1-4,1,11.66,11.66,0,0,1-2.81-.29,10.6,10.6,0,0,1-1.53-.48l.6-2.9a11.89,11.89,0,0,0,1.87.57A9.47,9.47,0,0,0,173.8,28.65Zm12.85.08c.35,0,.69,0,1,0a6.2,6.2,0,0,0,.77-.07V25.92c-.15,0-.36-.07-.65-.1a7.79,7.79,0,0,0-.79-.05,5.83,5.83,0,0,0-1,.08,2.23,2.23,0,0,0-.77.21,1.4,1.4,0,0,0-.53.46,1.5,1.5,0,0,0,.36,1.89A3.29,3.29,0,0,0,186.65,28.73Zm-.29-10.47a8.25,8.25,0,0,1,2.64.36,4,4,0,0,1,1.68,1,3.75,3.75,0,0,1,.92,1.64,8.29,8.29,0,0,1,.26,2.13v7.44c-.51.11-1.22.24-2.14.39a19.44,19.44,0,0,1-3.31.24,10.94,10.94,0,0,1-2.23-.22,4.83,4.83,0,0,1-1.7-.7,3.3,3.3,0,0,1-1.11-1.29,4.55,4.55,0,0,1-.38-2,3.75,3.75,0,0,1,.43-1.87,3.42,3.42,0,0,1,1.2-1.22,5.1,5.1,0,0,1,1.7-.65,9.36,9.36,0,0,1,2-.22,8.7,8.7,0,0,1,1.22.08,5.21,5.21,0,0,1,.89.14v-.34a2,2,0,0,0-.55-1.46,2.67,2.67,0,0,0-1.92-.55,11.92,11.92,0,0,0-1.8.14,7.14,7.14,0,0,0-1.54.36l-.46-2.88c.21-.06.47-.13.77-.19a10,10,0,0,1,1-.19c.37-.07.76-.11,1.16-.15S186,18.26,186.36,18.26Zm12.31,13h-3.58V18.6h3.58ZM199,15a2,2,0,0,1-.65,1.56,2.16,2.16,0,0,1-1.49.55,2.23,2.23,0,0,1-1.51-.55,2,2,0,0,1-.63-1.56,1.94,1.94,0,0,1,.63-1.54,2.2,2.2,0,0,1,1.51-.57,2.14,2.14,0,0,1,1.49.57A1.92,1.92,0,0,1,199,15ZM202,19a17.38,17.38,0,0,1,2.35-.48,18.42,18.42,0,0,1,3-.24,7,7,0,0,1,2.66.43,4,4,0,0,1,1.71,1.18,4.61,4.61,0,0,1,.88,1.82,9.54,9.54,0,0,1,.27,2.35v7.13h-3.58V24.53a4.86,4.86,0,0,0-.45-2.45,1.88,1.88,0,0,0-1.71-.72,5.77,5.77,0,0,0-.81.05,7.56,7.56,0,0,0-.77.07v9.74H202Z" transform="translate(0 0)"></path><circle class="cls-2" cx="24.04" cy="24.04" r="24.04"></circle><image width="1209" height="1104" transform="translate(9.54 8.98) scale(0.03)" xlink:href="Asset%202@4x%201.png"></image></svg>