<svg xmlns="http://www.w3.org/2000/svg" width="217" height="49" viewBox="0 0 217 49" fill="none"><path d="M63.68 31.2217V13.1737L67.256 12.5977V18.6457C67.496 18.5657 67.8 18.4937 68.168 18.4297C68.552 18.3497 68.92 18.3097 69.272 18.3097C70.296 18.3097 71.144 18.4537 71.816 18.7417C72.504 19.0137 73.048 19.4057 73.448 19.9177C73.864 20.4297 74.152 21.0377 74.312 21.7417C74.488 22.4457 74.576 23.2297 74.576 24.0937V31.2217H71V24.5257C71 23.3737 70.848 22.5577 70.544 22.0777C70.256 21.5977 69.712 21.3577 68.912 21.3577C68.592 21.3577 68.288 21.3897 68 21.4537C67.728 21.5017 67.48 21.5577 67.256 21.6217V31.2217H63.68ZM82.6368 28.7257C82.9888 28.7257 83.3248 28.7177 83.6448 28.7017C83.9648 28.6857 84.2208 28.6617 84.4128 28.6297V25.9177C84.2688 25.8857 84.0528 25.8537 83.7648 25.8217C83.4768 25.7897 83.2128 25.7737 82.9728 25.7737C82.6368 25.7737 82.3168 25.7977 82.0128 25.8457C81.7248 25.8777 81.4688 25.9497 81.2448 26.0617C81.0208 26.1737 80.8448 26.3257 80.7168 26.5177C80.5888 26.7097 80.5248 26.9497 80.5248 27.2377C80.5248 27.7977 80.7088 28.1897 81.0768 28.4137C81.4608 28.6217 81.9808 28.7257 82.6368 28.7257ZM82.3488 18.2617C83.4048 18.2617 84.2848 18.3817 84.9888 18.6217C85.6928 18.8617 86.2528 19.2057 86.6688 19.6537C87.1008 20.1017 87.4048 20.6457 87.5808 21.2857C87.7568 21.9257 87.8448 22.6377 87.8448 23.4217V30.8617C87.3328 30.9737 86.6208 31.1017 85.7088 31.2457C84.7968 31.4057 83.6928 31.4857 82.3968 31.4857C81.5808 31.4857 80.8368 31.4137 80.1648 31.2697C79.5088 31.1257 78.9408 30.8937 78.4608 30.5737C77.9808 30.2377 77.6128 29.8057 77.3568 29.2777C77.1008 28.7497 76.9728 28.1017 76.9728 27.3337C76.9728 26.5977 77.1168 25.9737 77.4048 25.4617C77.7088 24.9497 78.1088 24.5417 78.6048 24.2377C79.1008 23.9337 79.6688 23.7177 80.3088 23.5897C80.9488 23.4457 81.6128 23.3737 82.3008 23.3737C82.7648 23.3737 83.1728 23.3977 83.5248 23.4457C83.8928 23.4777 84.1888 23.5257 84.4128 23.5897V23.2537C84.4128 22.6457 84.2288 22.1577 83.8608 21.7897C83.4928 21.4217 82.8528 21.2377 81.9408 21.2377C81.3328 21.2377 80.7328 21.2857 80.1408 21.3817C79.5488 21.4617 79.0368 21.5817 78.6048 21.7417L78.1488 18.8617C78.3568 18.7977 78.6128 18.7337 78.9168 18.6697C79.2368 18.5897 79.5808 18.5257 79.9488 18.4777C80.3168 18.4137 80.7008 18.3657 81.1008 18.3337C81.5168 18.2857 81.9328 18.2617 82.3488 18.2617ZM98.6864 21.7657C98.3664 21.6857 97.9904 21.6057 97.5584 21.5257C97.1264 21.4297 96.6624 21.3817 96.1664 21.3817C95.9424 21.3817 95.6704 21.4057 95.3504 21.4537C95.0464 21.4857 94.8144 21.5257 94.6544 21.5737V31.2217H91.0784V19.2697C91.7184 19.0457 92.4704 18.8377 93.3344 18.6457C94.2144 18.4377 95.1904 18.3337 96.2624 18.3337C96.4544 18.3337 96.6864 18.3497 96.9584 18.3817C97.2304 18.3977 97.5024 18.4297 97.7744 18.4777C98.0464 18.5097 98.3184 18.5577 98.5904 18.6217C98.8624 18.6697 99.0944 18.7337 99.2864 18.8137L98.6864 21.7657ZM104.779 31.2217H101.203V18.5977H104.779V31.2217ZM105.115 14.9497C105.115 15.6057 104.899 16.1257 104.467 16.5097C104.051 16.8777 103.555 17.0617 102.979 17.0617C102.403 17.0617 101.899 16.8777 101.467 16.5097C101.051 16.1257 100.843 15.6057 100.843 14.9497C100.843 14.2937 101.051 13.7817 101.467 13.4137C101.899 13.0297 102.403 12.8377 102.979 12.8377C103.555 12.8377 104.051 13.0297 104.467 13.4137C104.899 13.7817 105.115 14.2937 105.115 14.9497ZM117.483 31.2217H113.907V18.5977H117.483V31.2217ZM117.819 14.9497C117.819 15.6057 117.603 16.1257 117.171 16.5097C116.755 16.8777 116.259 17.0617 115.683 17.0617C115.107 17.0617 114.603 16.8777 114.171 16.5097C113.755 16.1257 113.547 15.6057 113.547 14.9497C113.547 14.2937 113.755 13.7817 114.171 13.4137C114.603 13.0297 115.107 12.8377 115.683 12.8377C116.259 12.8377 116.755 13.0297 117.171 13.4137C117.603 13.7817 117.819 14.2937 117.819 14.9497ZM120.844 19.0297C121.452 18.8537 122.236 18.6937 123.196 18.5497C124.156 18.3897 125.164 18.3097 126.22 18.3097C127.292 18.3097 128.18 18.4537 128.884 18.7417C129.604 19.0137 130.172 19.4057 130.588 19.9177C131.004 20.4297 131.3 21.0377 131.476 21.7417C131.652 22.4457 131.74 23.2297 131.74 24.0937V31.2217H128.164V24.5257C128.164 23.3737 128.012 22.5577 127.708 22.0777C127.404 21.5977 126.836 21.3577 126.004 21.3577C125.748 21.3577 125.476 21.3737 125.188 21.4057C124.9 21.4217 124.644 21.4457 124.42 21.4777V31.2217H120.844V19.0297ZM138.553 31.2217H134.977V18.5977H138.553V31.2217ZM138.889 14.9497C138.889 15.6057 138.673 16.1257 138.241 16.5097C137.825 16.8777 137.329 17.0617 136.753 17.0617C136.177 17.0617 135.673 16.8777 135.241 16.5097C134.825 16.1257 134.617 15.6057 134.617 14.9497C134.617 14.2937 134.825 13.7817 135.241 13.4137C135.673 13.0297 136.177 12.8377 136.753 12.8377C137.329 12.8377 137.825 13.0297 138.241 13.4137C138.673 13.7817 138.889 14.2937 138.889 14.9497Z" fill="#273242"></path><path d="M155.984 21.3817C155.712 21.1577 155.32 20.9417 154.808 20.7337C154.296 20.5257 153.736 20.4217 153.128 20.4217C152.488 20.4217 151.936 20.5417 151.472 20.7817C151.024 21.0057 150.656 21.3257 150.368 21.7417C150.08 22.1417 149.872 22.6217 149.744 23.1817C149.616 23.7417 149.552 24.3417 149.552 24.9817C149.552 26.4377 149.912 27.5657 150.632 28.3657C151.352 29.1497 152.312 29.5417 153.512 29.5417C154.12 29.5417 154.624 29.5177 155.024 29.4697C155.44 29.4057 155.76 29.3417 155.984 29.2777V21.3817ZM155.984 12.9817L158.216 12.5977V30.8617C157.704 31.0057 157.048 31.1497 156.248 31.2937C155.448 31.4377 154.528 31.5097 153.488 31.5097C152.528 31.5097 151.664 31.3577 150.896 31.0537C150.128 30.7497 149.472 30.3177 148.928 29.7577C148.384 29.1977 147.96 28.5177 147.656 27.7177C147.368 26.9017 147.224 25.9897 147.224 24.9817C147.224 24.0217 147.344 23.1417 147.584 22.3417C147.84 21.5417 148.208 20.8537 148.688 20.2777C149.168 19.7017 149.752 19.2537 150.44 18.9337C151.144 18.6137 151.944 18.4537 152.84 18.4537C153.56 18.4537 154.192 18.5497 154.736 18.7417C155.296 18.9337 155.712 19.1177 155.984 19.2937V12.9817ZM161.357 25.0057C161.357 23.9017 161.517 22.9417 161.837 22.1257C162.157 21.2937 162.581 20.6057 163.109 20.0617C163.637 19.5177 164.245 19.1097 164.933 18.8377C165.621 18.5657 166.325 18.4297 167.045 18.4297C168.725 18.4297 170.013 18.9577 170.909 20.0137C171.805 21.0537 172.253 22.6457 172.253 24.7897C172.253 24.8857 172.253 25.0137 172.253 25.1737C172.253 25.3177 172.245 25.4537 172.229 25.5817H163.685C163.781 26.8777 164.157 27.8617 164.813 28.5337C165.469 29.2057 166.493 29.5417 167.885 29.5417C168.669 29.5417 169.325 29.4777 169.853 29.3497C170.397 29.2057 170.805 29.0697 171.077 28.9417L171.389 30.8137C171.117 30.9577 170.637 31.1097 169.949 31.2697C169.277 31.4297 168.509 31.5097 167.645 31.5097C166.557 31.5097 165.613 31.3497 164.813 31.0297C164.029 30.6937 163.381 30.2377 162.869 29.6617C162.357 29.0857 161.973 28.4057 161.717 27.6217C161.477 26.8217 161.357 25.9497 161.357 25.0057ZM169.925 23.7817C169.941 22.7737 169.685 21.9497 169.157 21.3097C168.645 20.6537 167.933 20.3257 167.021 20.3257C166.509 20.3257 166.053 20.4297 165.653 20.6377C165.269 20.8297 164.941 21.0857 164.669 21.4057C164.397 21.7257 164.181 22.0937 164.021 22.5097C163.877 22.9257 163.781 23.3497 163.733 23.7817H169.925ZM178.363 29.6137C179.275 29.6137 179.947 29.4937 180.379 29.2537C180.827 29.0137 181.051 28.6297 181.051 28.1017C181.051 27.5577 180.835 27.1257 180.403 26.8057C179.971 26.4857 179.259 26.1257 178.267 25.7257C177.787 25.5337 177.323 25.3417 176.875 25.1497C176.443 24.9417 176.067 24.7017 175.747 24.4297C175.427 24.1577 175.171 23.8297 174.979 23.4457C174.787 23.0617 174.691 22.5897 174.691 22.0297C174.691 20.9257 175.099 20.0537 175.915 19.4137C176.731 18.7577 177.843 18.4297 179.251 18.4297C179.603 18.4297 179.955 18.4537 180.307 18.5017C180.659 18.5337 180.987 18.5817 181.291 18.6457C181.595 18.6937 181.859 18.7497 182.083 18.8137C182.323 18.8777 182.507 18.9337 182.635 18.9817L182.227 20.9017C181.987 20.7737 181.611 20.6457 181.099 20.5177C180.587 20.3737 179.971 20.3017 179.251 20.3017C178.627 20.3017 178.083 20.4297 177.619 20.6857C177.155 20.9257 176.923 21.3097 176.923 21.8377C176.923 22.1097 176.971 22.3497 177.067 22.5577C177.179 22.7657 177.339 22.9577 177.547 23.1337C177.771 23.2937 178.043 23.4457 178.363 23.5897C178.683 23.7337 179.067 23.8857 179.515 24.0457C180.107 24.2697 180.635 24.4937 181.099 24.7177C181.563 24.9257 181.955 25.1737 182.275 25.4617C182.611 25.7497 182.867 26.1017 183.043 26.5177C183.219 26.9177 183.307 27.4137 183.307 28.0057C183.307 29.1577 182.875 30.0297 182.011 30.6217C181.163 31.2137 179.947 31.5097 178.363 31.5097C177.259 31.5097 176.395 31.4137 175.771 31.2217C175.147 31.0457 174.723 30.9097 174.499 30.8137L174.907 28.8937C175.163 28.9897 175.571 29.1337 176.131 29.3257C176.691 29.5177 177.435 29.6137 178.363 29.6137ZM190.394 29.6137C190.922 29.6137 191.386 29.6057 191.786 29.5897C192.202 29.5577 192.546 29.5097 192.818 29.4457V25.7257C192.658 25.6457 192.394 25.5817 192.026 25.5337C191.674 25.4697 191.242 25.4377 190.73 25.4377C190.394 25.4377 190.034 25.4617 189.65 25.5097C189.282 25.5577 188.938 25.6617 188.618 25.8217C188.314 25.9657 188.058 26.1737 187.85 26.4457C187.642 26.7017 187.538 27.0457 187.538 27.4777C187.538 28.2777 187.794 28.8377 188.306 29.1577C188.818 29.4617 189.514 29.6137 190.394 29.6137ZM190.202 18.4297C191.098 18.4297 191.85 18.5497 192.458 18.7897C193.082 19.0137 193.578 19.3417 193.946 19.7737C194.33 20.1897 194.602 20.6937 194.762 21.2857C194.922 21.8617 195.002 22.5017 195.002 23.2057V31.0057C194.81 31.0377 194.538 31.0857 194.186 31.1497C193.85 31.1977 193.466 31.2457 193.034 31.2937C192.602 31.3417 192.13 31.3817 191.618 31.4137C191.122 31.4617 190.626 31.4857 190.13 31.4857C189.426 31.4857 188.778 31.4137 188.186 31.2697C187.594 31.1257 187.082 30.9017 186.65 30.5977C186.218 30.2777 185.882 29.8617 185.642 29.3497C185.402 28.8377 185.282 28.2217 185.282 27.5017C185.282 26.8137 185.418 26.2217 185.69 25.7257C185.978 25.2297 186.362 24.8297 186.842 24.5257C187.322 24.2217 187.882 23.9977 188.522 23.8537C189.162 23.7097 189.834 23.6377 190.538 23.6377C190.762 23.6377 190.994 23.6537 191.234 23.6857C191.474 23.7017 191.698 23.7337 191.906 23.7817C192.13 23.8137 192.322 23.8457 192.482 23.8777C192.642 23.9097 192.754 23.9337 192.818 23.9497V23.3257C192.818 22.9577 192.778 22.5977 192.698 22.2457C192.618 21.8777 192.474 21.5577 192.266 21.2857C192.058 20.9977 191.77 20.7737 191.402 20.6137C191.05 20.4377 190.586 20.3497 190.01 20.3497C189.274 20.3497 188.626 20.4057 188.066 20.5177C187.522 20.6137 187.114 20.7177 186.842 20.8297L186.578 18.9817C186.866 18.8537 187.346 18.7337 188.018 18.6217C188.69 18.4937 189.418 18.4297 190.202 18.4297ZM200.941 31.2217H198.709V18.7417H200.941V31.2217ZM199.813 16.4857C199.413 16.4857 199.069 16.3577 198.781 16.1017C198.509 15.8297 198.373 15.4697 198.373 15.0217C198.373 14.5737 198.509 14.2217 198.781 13.9657C199.069 13.6937 199.413 13.5577 199.813 13.5577C200.213 13.5577 200.549 13.6937 200.821 13.9657C201.109 14.2217 201.253 14.5737 201.253 15.0217C201.253 15.4697 201.109 15.8297 200.821 16.1017C200.549 16.3577 200.213 16.4857 199.813 16.4857ZM204.779 19.1017C205.291 18.9737 205.971 18.8377 206.819 18.6937C207.667 18.5497 208.643 18.4777 209.747 18.4777C210.739 18.4777 211.563 18.6217 212.219 18.9097C212.875 19.1817 213.395 19.5737 213.779 20.0857C214.179 20.5817 214.459 21.1817 214.619 21.8857C214.779 22.5897 214.859 23.3657 214.859 24.2137V31.2217H212.627V24.6937C212.627 23.9257 212.571 23.2697 212.459 22.7257C212.363 22.1817 212.195 21.7417 211.955 21.4057C211.715 21.0697 211.395 20.8297 210.995 20.6857C210.595 20.5257 210.099 20.4457 209.507 20.4457C209.267 20.4457 209.019 20.4537 208.763 20.4697C208.507 20.4857 208.259 20.5097 208.019 20.5417C207.795 20.5577 207.587 20.5817 207.395 20.6137C207.219 20.6457 207.091 20.6697 207.011 20.6857V31.2217H204.779V19.1017Z" fill="#F6C400"></path><circle cx="24.0418" cy="24.0418" r="24.0418" fill="#273242"></circle><rect x="11" y="11" width="29.0496" height="26.53"></rect></svg>