<svg xmlns="http://www.w3.org/2000/svg" width="29" height="30" viewBox="0 0 29 30" fill="none"><path d="M12.0725 16.9664C12.0725 18.2157 11.1663 18.6106 10.0529 18.6106H7.13348V15.1862H10.1112C11.3152 15.1927 12.0725 15.6912 12.0725 16.9664ZM11.5741 11.6389C11.5741 10.4932 10.6873 10.2213 9.70335 10.2213H7.13996V13.1213H9.90402C10.8815 13.1213 11.5741 12.6941 11.5741 11.6389ZM20.1382 13.1407C18.9536 13.1407 18.1638 13.8787 18.0862 15.0633H22.1125C22.0025 13.8657 21.381 13.1407 20.1382 13.1407ZM29 3.17843V25.9641C29 27.6795 27.6083 29.0713 25.8929 29.0713H3.10714C1.39174 29.0713 0 27.6795 0 25.9641V3.17843C0 1.46303 1.39174 0.0712891 3.10714 0.0712891H25.8929C27.6083 0.0712891 29 1.46303 29 3.17843ZM17.5877 9.97531H22.6239V8.75187H17.5877V9.97531ZM14.8042 17.1153C14.8042 15.5552 14.0663 14.2088 12.5386 13.7751C13.652 13.2443 14.2346 12.6293 14.2346 11.38C14.2346 8.90723 12.3897 8.30522 10.26 8.30522H4.40179V20.7338H10.4283C12.6875 20.7208 14.8042 19.6398 14.8042 17.1153ZM24.5982 16.1572C24.5982 13.4967 23.0382 11.2764 20.2223 11.2764C17.4777 11.2764 15.6199 13.3349 15.6199 16.0407C15.6199 18.8436 17.3871 20.7662 20.2223 20.7662C22.3714 20.7662 23.7632 19.8016 24.4364 17.7367H22.2549C22.0154 18.507 21.0509 18.9083 20.3 18.9083C18.85 18.9083 18.0926 18.0604 18.0926 16.6233H24.5788C24.5853 16.4744 24.5982 16.3126 24.5982 16.1572Z" fill="#273242"></path></svg>