<svg xmlns="http://www.w3.org/2000/svg" width="17" height="17" viewBox="0 0 17 17" fill="none"><path d="M6.4043 6.14648H7.66266V9.2924H10.8086V10.5508H6.4043V6.14648Z" fill="#A2A2A2"></path><path fill-rule="evenodd" clip-rule="evenodd" d="M14.5837 9.29183C14.5837 12.7668 11.7668 15.5837 8.29183 15.5837C4.81685 15.5837 2 12.7668 2 9.29183C2 5.81685 4.81685 3 8.29183 3C11.7668 3 14.5837 5.81685 14.5837 9.29183ZM13.3253 9.29183C13.3253 10.6268 12.795 11.9071 11.851 12.851C10.9071 13.795 9.62679 14.3253 8.29183 14.3253C6.95687 14.3253 5.67659 13.795 4.73263 12.851C3.78868 11.9071 3.25837 10.6268 3.25837 9.29183C3.25837 7.95687 3.78868 6.67659 4.73263 5.73263C5.67659 4.78868 6.95687 4.25837 8.29183 4.25837C9.62679 4.25837 10.9071 4.78868 11.851 5.73263C12.795 6.67659 13.3253 7.95687 13.3253 9.29183V9.29183Z" fill="#A2A2A2"></path></svg>