<svg xmlns="http://www.w3.org/2000/svg" width="36" height="36" viewBox="0 0 36 36" fill="none"><path d="M18 8.7861C12.9014 8.7861 8.78652 12.9009 8.78652 17.9996C8.78652 23.0982 12.9014 27.2131 18 27.2131C23.0986 27.2131 27.2135 23.0982 27.2135 17.9996C27.2135 12.9009 23.0986 8.7861 18 8.7861ZM18 23.9877C14.7027 23.9877 12.0119 21.2968 12.0119 17.9996C12.0119 14.7023 14.7027 12.0115 18 12.0115C21.2973 12.0115 23.9881 14.7023 23.9881 17.9996C23.9881 21.2968 21.2973 23.9877 18 23.9877ZM27.5908 6.26149C26.4004 6.26149 25.4391 7.22282 25.4391 8.41325C25.4391 9.60368 26.4004 10.565 27.5908 10.565C28.7812 10.565 29.7426 9.60817 29.7426 8.41325C29.7429 8.13058 29.6875 7.85061 29.5795 7.58939C29.4715 7.32817 29.313 7.09082 29.1131 6.89094C28.9133 6.69106 28.6759 6.53257 28.4147 6.42456C28.1535 6.31655 27.8735 6.26114 27.5908 6.26149ZM35.9598 17.9996C35.9598 15.5199 35.9822 13.0627 35.843 10.5875C35.7037 7.71247 35.0479 5.16091 32.9455 3.05856C30.8387 0.951726 28.2916 0.30036 25.4166 0.161102C22.9369 0.0218439 20.4797 0.0443049 18.0045 0.0443049C15.5248 0.0443049 13.0676 0.0218439 10.5924 0.161102C7.71738 0.30036 5.16582 0.956219 3.06348 3.05856C0.95664 5.1654 0.305273 7.71247 0.166015 10.5875C0.0267573 13.0672 0.0492183 15.5244 0.0492183 17.9996C0.0492183 20.4748 0.0267573 22.9365 0.166015 25.4117C0.305273 28.2867 0.961132 30.8382 3.06348 32.9406C5.17031 35.0474 7.71738 35.6988 10.5924 35.8381C13.0721 35.9773 15.5293 35.9549 18.0045 35.9549C20.4842 35.9549 22.9414 35.9773 25.4166 35.8381C28.2916 35.6988 30.8432 35.0429 32.9455 32.9406C35.0523 30.8338 35.7037 28.2867 35.843 25.4117C35.9867 22.9365 35.9598 20.4793 35.9598 17.9996ZM32.0066 28.5922C31.6787 29.4097 31.2834 30.0207 30.65 30.6496C30.0166 31.283 29.4102 31.6783 28.5926 32.0062C26.2297 32.9451 20.6189 32.734 18 32.734C15.3811 32.734 9.76582 32.9451 7.40293 32.0107C6.58535 31.6828 5.97441 31.2875 5.34551 30.6541C4.71211 30.0207 4.3168 29.4142 3.98887 28.5966C3.05449 26.2293 3.26562 20.6185 3.26562 17.9996C3.26562 15.3806 3.05449 9.7654 3.98887 7.40251C4.3168 6.58493 4.71211 5.97399 5.34551 5.34509C5.97891 4.71618 6.58535 4.31638 7.40293 3.98845C9.76582 3.05407 15.3811 3.2652 18 3.2652C20.6189 3.2652 26.2342 3.05407 28.5971 3.98845C29.4146 4.31638 30.0256 4.71169 30.6545 5.34509C31.2879 5.97848 31.6832 6.58493 32.0111 7.40251C32.9455 9.7654 32.7344 15.3806 32.7344 17.9996C32.7344 20.6185 32.9455 26.2293 32.0066 28.5922Z" fill="#273242"></path></svg>