<svg xmlns="http://www.w3.org/2000/svg" width="31" height="31" viewBox="0 0 31 31" fill="none"><path d="M15.4998 0.916504C19.4621 0.916504 19.9565 0.931087 21.5111 1.004C23.0642 1.07692 24.1215 1.32046 25.0519 1.68213C26.0144 2.05255 26.8253 2.55421 27.6361 3.36359C28.3776 4.0926 28.9514 4.97445 29.3175 5.94775C29.6778 6.87671 29.9228 7.93546 29.9957 9.48859C30.0642 11.0432 30.0832 11.5375 30.0832 15.4998C30.0832 19.4621 30.0686 19.9565 29.9957 21.5111C29.9228 23.0642 29.6778 24.1215 29.3175 25.0519C28.9525 26.0258 28.3786 26.9078 27.6361 27.6361C26.9069 28.3774 26.0251 28.9511 25.0519 29.3175C24.123 29.6778 23.0642 29.9228 21.5111 29.9957C19.9565 30.0642 19.4621 30.0832 15.4998 30.0832C11.5375 30.0832 11.0432 30.0686 9.48859 29.9957C7.93546 29.9228 6.87817 29.6778 5.94775 29.3175C4.97406 28.9522 4.09206 28.3783 3.36359 27.6361C2.62189 26.9072 2.04807 26.0253 1.68213 25.0519C1.32046 24.123 1.07692 23.0642 1.004 21.5111C0.935462 19.9565 0.916504 19.4621 0.916504 15.4998C0.916504 11.5375 0.931087 11.0432 1.004 9.48859C1.07692 7.934 1.32046 6.87817 1.68213 5.94775C2.04706 4.97385 2.62101 4.09176 3.36359 3.36359C4.09227 2.62163 4.97421 2.04778 5.94775 1.68213C6.87817 1.32046 7.934 1.07692 9.48859 1.004C11.0432 0.935462 11.5375 0.916504 15.4998 0.916504ZM15.4998 8.20817C13.566 8.20817 11.7113 8.9764 10.3439 10.3439C8.9764 11.7113 8.20817 13.566 8.20817 15.4998C8.20817 17.4337 8.9764 19.2884 10.3439 20.6558C11.7113 22.0233 13.566 22.7915 15.4998 22.7915C17.4337 22.7915 19.2884 22.0233 20.6558 20.6558C22.0233 19.2884 22.7915 17.4337 22.7915 15.4998C22.7915 13.566 22.0233 11.7113 20.6558 10.3439C19.2884 8.9764 17.4337 8.20817 15.4998 8.20817ZM24.979 7.84359C24.979 7.36012 24.787 6.89645 24.4451 6.55459C24.1032 6.21273 23.6396 6.02067 23.1561 6.02067C22.6726 6.02067 22.209 6.21273 21.8671 6.55459C21.5252 6.89645 21.3332 7.36012 21.3332 7.84359C21.3332 8.32705 21.5252 8.79072 21.8671 9.13258C22.209 9.47445 22.6726 9.6665 23.1561 9.6665C23.6396 9.6665 24.1032 9.47445 24.4451 9.13258C24.787 8.79072 24.979 8.32705 24.979 7.84359ZM15.4998 11.1248C16.6602 11.1248 17.773 11.5858 18.5934 12.4062C19.4139 13.2267 19.8748 14.3395 19.8748 15.4998C19.8748 16.6602 19.4139 17.773 18.5934 18.5934C17.773 19.4139 16.6602 19.8748 15.4998 19.8748C14.3395 19.8748 13.2267 19.4139 12.4062 18.5934C11.5858 17.773 11.1248 16.6602 11.1248 15.4998C11.1248 14.3395 11.5858 13.2267 12.4062 12.4062C13.2267 11.5858 14.3395 11.1248 15.4998 11.1248Z" fill="#273242"></path></svg>