<svg xmlns="http://www.w3.org/2000/svg" width="15" height="15" viewBox="0 0 15 15" fill="none"><path d="M11.25 9.844C10.9974 9.8439 10.7475 9.895 10.5153 9.99419C10.2831 10.0934 10.0733 10.2386 9.89881 10.4211L5.56287 7.9816C5.64686 7.66619 5.64686 7.3343 5.56287 7.0189L9.89881 4.57935C10.2145 4.9067 10.6388 5.10769 11.0921 5.14469C11.5454 5.18168 11.9966 5.05213 12.3613 4.78031C12.7259 4.50849 12.9789 4.11304 13.0729 3.66806C13.1669 3.22308 13.0954 2.75909 12.8719 2.36302C12.6484 1.96694 12.2881 1.66596 11.8585 1.51647C11.429 1.36697 10.9597 1.3792 10.5386 1.55089C10.1174 1.72257 9.77329 2.04191 9.57069 2.4491C9.36809 2.85628 9.3209 3.32337 9.43797 3.76285L5.10203 6.2024C4.84303 5.93235 4.50916 5.74597 4.14336 5.66723C3.77756 5.58849 3.39657 5.621 3.0494 5.76058C2.70224 5.90015 2.40477 6.1404 2.19526 6.45043C1.98576 6.76046 1.87381 7.12607 1.87381 7.50025C1.87381 7.87442 1.98576 8.24004 2.19526 8.55007C2.40477 8.86009 2.70224 9.10035 3.0494 9.23992C3.39657 9.37949 3.77756 9.412 4.14336 9.33327C4.50916 9.25453 4.84303 9.06815 5.10203 8.7981L9.43797 11.2376C9.33744 11.6161 9.35793 12.0166 9.49657 12.3828C9.63521 12.7491 9.88505 13.0627 10.211 13.2797C10.537 13.4967 10.9227 13.6063 11.3141 13.5929C11.7055 13.5796 12.0828 13.444 12.3932 13.2052C12.7036 12.9665 12.9315 12.6366 13.0449 12.2617C13.1582 11.8869 13.1514 11.486 13.0253 11.1152C12.8992 10.7445 12.6601 10.4225 12.3418 10.1945C12.0234 9.96655 11.6416 9.84397 11.25 9.844Z" fill="#273242"></path></svg>