<svg xmlns="http://www.w3.org/2000/svg" width="29" height="29" viewBox="0 0 29 29" fill="none"><path d="M5.68532 0.00683594C2.56152 0.00683594 0.00488281 2.56342 0.00488281 5.68727V23.3147C0.00488281 26.4385 2.56147 28.9942 5.68532 28.9942H23.3127C26.4365 28.9942 28.9922 26.4385 28.9922 23.3147V5.68727C28.9922 2.56348 26.4365 0.00683594 23.3127 0.00683594H5.68532ZM7.11403 4.79033C8.61182 4.79033 9.5344 5.7736 9.56288 7.0661C9.56288 8.33007 8.61176 9.34098 7.08506 9.34098H7.05696C5.58767 9.34098 4.63801 8.33013 4.63801 7.0661C4.63801 5.77363 5.61644 4.79033 7.11403 4.79033ZM20.0213 10.8313C22.9019 10.8313 25.0613 12.7141 25.0613 16.76V24.313H20.6836V17.2664C20.6836 15.4956 20.0501 14.2875 18.4658 14.2875C17.2564 14.2875 16.5355 15.1018 16.219 15.8884C16.1034 16.1698 16.075 16.5628 16.075 16.9565V24.313H11.6973C11.6973 24.313 11.7548 12.3762 11.6973 11.1402H16.0759V13.0056C16.6576 12.1081 17.6982 10.8313 20.0213 10.8313ZM4.89623 11.1412H9.27386V24.313H4.89623V11.1412Z" fill="#273242"></path></svg>