<svg xmlns="http://www.w3.org/2000/svg" width="13" height="13" viewBox="0 0 13 13" fill="none"><path d="M4.625 3.375H5.875V6.5H9V7.75H4.625V3.375Z" fill="#A2A2A2"></path><path fill-rule="evenodd" clip-rule="evenodd" d="M12.75 6.5C12.75 9.95187 9.95187 12.75 6.5 12.75C3.04813 12.75 0.25 9.95187 0.25 6.5C0.25 3.04813 3.04813 0.25 6.5 0.25C9.95187 0.25 12.75 3.04813 12.75 6.5ZM11.5 6.5C11.5 7.82608 10.9732 9.09785 10.0355 10.0355C9.09785 10.9732 7.82608 11.5 6.5 11.5C5.17392 11.5 3.90215 10.9732 2.96447 10.0355C2.02678 9.09785 1.5 7.82608 1.5 6.5C1.5 5.17392 2.02678 3.90215 2.96447 2.96447C3.90215 2.02678 5.17392 1.5 6.5 1.5C7.82608 1.5 9.09785 2.02678 10.0355 2.96447C10.9732 3.90215 11.5 5.17392 11.5 6.5Z" fill="#A2A2A2"></path></svg>