<svg xmlns="http://www.w3.org/2000/svg" width="14" height="14" viewBox="0 0 14 14" fill="none"><path fill-rule="evenodd" clip-rule="evenodd" d="M11.8022 2.22477C11.1785 1.59694 10.4364 1.09911 9.6189 0.760133C8.80139 0.421158 7.92475 0.247772 7.03975 0.250022C3.32875 0.250022 0.30775 3.27027 0.30625 6.98277C0.30625 8.16927 0.616 9.32727 1.20475 10.3488L0.25 13.837L3.81925 12.9003C4.80655 13.4377 5.91265 13.7195 7.03675 13.72H7.03975C10.75 13.72 13.771 10.6998 13.7725 6.98727C13.775 6.10263 13.6022 5.22627 13.2641 4.40882C12.9259 3.59137 12.429 2.84905 11.8022 2.22477ZM7.03975 12.5838H7.0375C6.03514 12.5839 5.05122 12.3142 4.189 11.803L3.985 11.6815L1.867 12.2373L2.43175 10.1725L2.299 9.96102C1.73859 9.06884 1.44192 8.03636 1.44325 6.98277C1.44475 3.89727 3.955 1.38702 7.042 1.38702C7.77719 1.38539 8.5054 1.52958 9.18449 1.81126C9.86358 2.09294 10.4801 2.5065 10.9982 3.02802C11.5192 3.54705 11.9321 4.16419 12.2132 4.84377C12.4942 5.52335 12.6377 6.25188 12.6355 6.98727C12.634 10.0728 10.1238 12.5838 7.03975 12.5838ZM10.1095 8.39202C9.94075 8.30727 9.11425 7.90077 8.95975 7.84452C8.806 7.78827 8.69425 7.76052 8.58175 7.92852C8.46925 8.09652 8.14675 8.47527 8.0485 8.58777C7.95025 8.70027 7.852 8.71377 7.684 8.62977C7.516 8.54577 6.97375 8.36802 6.331 7.79502C5.83075 7.34877 5.49325 6.79827 5.395 6.62952C5.29675 6.46077 5.3845 6.37002 5.46925 6.28602C5.545 6.21102 5.63725 6.08952 5.72125 5.99127C5.80525 5.89302 5.833 5.82327 5.88925 5.71077C5.9455 5.59827 5.91775 5.50002 5.875 5.41602C5.833 5.33127 5.49625 4.50327 5.356 4.16652C5.22025 3.84027 5.0815 3.88377 4.978 3.87927C4.87081 3.87489 4.76353 3.87289 4.65625 3.87327C4.57094 3.87545 4.487 3.89522 4.4097 3.93136C4.33239 3.96749 4.26338 4.01921 4.207 4.08327C4.0525 4.25202 3.61825 4.65852 3.61825 5.48652C3.61825 6.31452 4.22125 7.11477 4.30525 7.22727C4.38925 7.33977 5.49175 9.03852 7.17925 9.76752C7.58125 9.94077 7.89475 10.0443 8.1385 10.1223C8.54125 10.2505 8.908 10.2318 9.19825 10.189C9.5215 10.141 10.1935 9.78252 10.3337 9.38952C10.474 8.99652 10.474 8.65977 10.432 8.58927C10.39 8.51877 10.2767 8.47602 10.1095 8.39202Z" fill="#273242"></path></svg>