<svg xmlns="http://www.w3.org/2000/svg" width="16" height="16" viewBox="0 0 16 16" fill="none"><path fill-rule="evenodd" clip-rule="evenodd" d="M13.6039 2.32548C12.8694 1.58614 11.9954 0.999906 11.0328 0.60073C10.0701 0.201554 9.03774 -0.0026233 7.99557 2.54441e-05C3.62552 2.54441e-05 0.0680061 3.55666 0.0662397 7.92847C0.0662397 9.32569 0.430999 10.6893 1.12431 11.8923L0 16L4.20313 14.8969C5.36576 15.5298 6.6683 15.8616 7.99204 15.8622H7.99557C12.3647 15.8622 15.9223 12.3056 15.924 7.93377C15.927 6.89203 15.7235 5.86002 15.3253 4.8974C14.927 3.93478 14.342 3.06063 13.6039 2.32548V2.32548ZM7.99557 14.5242H7.99292C6.81255 14.5243 5.6539 14.2067 4.63854 13.6048L4.39832 13.4617L1.90417 14.1161L2.56922 11.6847L2.41289 11.4356C1.75296 10.385 1.4036 9.16917 1.40516 7.92847C1.40693 4.29501 4.36299 1.33895 7.99822 1.33895C8.86397 1.33703 9.72151 1.50683 10.5212 1.83853C11.3209 2.17023 12.0469 2.65725 12.6571 3.27138C13.2706 3.88259 13.7568 4.60933 14.0878 5.4096C14.4187 6.20986 14.5877 7.06779 14.5851 7.93377C14.5833 11.5672 11.6273 14.5242 7.99557 14.5242ZM11.6105 9.588C11.4118 9.4882 10.4385 9.00951 10.2566 8.94327C10.0755 8.87703 9.9439 8.84435 9.81142 9.04218C9.67894 9.24002 9.29917 9.68603 9.18347 9.81851C9.06777 9.95099 8.95207 9.96689 8.75424 9.86797C8.5564 9.76905 7.91785 9.55974 7.16095 8.88498C6.57186 8.35947 6.17442 7.71121 6.05872 7.51249C5.94302 7.31377 6.04636 7.2069 6.14616 7.10799C6.23536 7.01967 6.344 6.87659 6.44291 6.76089C6.54183 6.64519 6.57451 6.56305 6.64075 6.43057C6.70699 6.29809 6.67431 6.1824 6.62397 6.08348C6.57451 5.98368 6.17795 5.00863 6.0128 4.61207C5.85294 4.22788 5.68955 4.27911 5.56767 4.27381C5.44144 4.26865 5.31511 4.26629 5.18878 4.26674C5.08832 4.2693 4.98947 4.29259 4.89843 4.33515C4.8074 4.3777 4.72613 4.4386 4.65974 4.51404C4.4778 4.71276 3.96643 5.19145 3.96643 6.1665C3.96643 7.14155 4.67652 8.08392 4.77544 8.2164C4.87436 8.34888 6.17266 10.3493 8.15985 11.2078C8.63324 11.4118 9.00241 11.5337 9.28945 11.6255C9.76373 11.7766 10.1956 11.7545 10.5374 11.7041C10.9181 11.6476 11.7094 11.2254 11.8746 10.7626C12.0397 10.2999 12.0397 9.9033 11.9903 9.82028C11.9408 9.73726 11.8074 9.68692 11.6105 9.588" fill="white"></path></svg>