<svg xmlns="http://www.w3.org/2000/svg" width="30" height="30" viewBox="0 0 30 30" fill="none"><path d="M14.3142 0.850302C6.7917 1.20447 0.857281 7.42364 0.879948 14.8994C0.883674 17.0999 1.41052 19.268 2.41703 21.2248L0.918197 28.4512C0.89991 28.5416 0.904698 28.6351 0.93212 28.7231C0.959542 28.8111 1.00871 28.8908 1.07508 28.9547C1.14145 29.0187 1.22288 29.0649 1.31184 29.0891C1.4008 29.1132 1.49442 29.1146 1.58403 29.093L8.71553 27.4156C10.6043 28.349 12.6779 28.8485 14.7845 28.8776C22.4728 28.9952 28.8818 22.9347 29.1212 15.306C29.379 7.12472 22.5804 0.457885 14.3142 0.848885V0.850302ZM22.8241 22.6202C21.7963 23.6444 20.5765 24.4556 19.2346 25.0074C17.8927 25.5593 16.4551 25.8409 15.0041 25.8361C13.297 25.8413 11.6122 25.4494 10.0826 24.6914L9.08953 24.1998L4.71628 25.2283L5.63711 20.7927L5.14695 19.8407C4.35234 18.3004 3.94028 16.5915 3.94561 14.8583C3.94561 11.9258 5.09595 9.16755 7.18411 7.09497C9.26548 5.03471 12.0755 3.87863 15.0041 3.87772C17.9593 3.87772 20.736 5.01955 22.8241 7.09355C23.8529 8.10737 24.6693 9.31608 25.2256 10.6491C25.7819 11.982 26.0669 13.4125 26.064 14.8569C26.064 17.7639 24.8953 20.566 22.8241 22.6216V22.6202Z" fill="#273242"></path><path d="M21.8597 17.8972L19.1241 17.1181C18.9476 17.0674 18.7607 17.0651 18.583 17.1115C18.4053 17.1578 18.2433 17.2511 18.114 17.3816L17.4454 18.0587C17.307 18.1989 17.1304 18.2951 16.9377 18.3354C16.7449 18.3758 16.5446 18.3584 16.3616 18.2854C15.0682 17.7655 12.3454 15.3628 11.6498 14.1601C11.5523 13.9902 11.5077 13.7951 11.5219 13.5997C11.536 13.4043 11.6082 13.2176 11.7291 13.0636L12.3128 12.3127C12.4252 12.1689 12.4963 11.9972 12.5185 11.816C12.5407 11.6348 12.5132 11.451 12.4389 11.2842L11.2885 8.70024C11.2235 8.55581 11.1258 8.42845 11.0032 8.32815C10.8806 8.22785 10.7364 8.15736 10.5819 8.12221C10.4275 8.08706 10.267 8.08822 10.1131 8.12559C9.95912 8.16296 9.81595 8.23552 9.6948 8.33758C8.93122 8.97933 8.02455 9.95258 7.91547 11.0335C7.72138 12.9361 8.54305 15.3345 11.6512 18.216C15.2425 21.5437 18.1197 21.9843 19.9911 21.5324C21.0536 21.2774 21.9036 20.2532 22.4377 19.4159C22.5231 19.2829 22.5761 19.1317 22.5925 18.9745C22.6088 18.8173 22.5881 18.6585 22.5319 18.5108C22.4756 18.363 22.3855 18.2306 22.2688 18.124C22.1521 18.0175 22.0119 17.9398 21.8597 17.8972Z" fill="#273242"></path></svg>